<svg xmlns="http://www.w3.org/2000/svg" id="svg2230" version="1.1" viewBox="0 0 8.245 7.509">
  <path id="zero" fill="#000" fill-opacity="1" d="M2.357 7.51q-.64 0-1.088-.129-.448-.138-.736-.373-.277-.245-.405-.576Q0 6.102 0 5.696V1.813q0-.405.128-.736.128-.33.405-.565.288-.245.736-.373Q1.717 0 2.357 0h3.531q.64 0 1.088.139.448.128.725.373.288.235.416.565.128.331.128.736v3.883q0 .405-.128.736-.128.33-.416.576-.277.235-.725.373-.448.128-1.088.128zm4.47-5.707q0-.694-.939-.694h-3.53q-.94 0-.94.694v3.904q0 .693.94.693h3.53q.939 0 .939-.693z"/>
</svg>
