<svg xmlns="http://www.w3.org/2000/svg" id="svg2230" version="1.1" viewBox="0 0 7.413 7.509">
  <path id="three" fill="#000" fill-opacity="1" d="M0 7.51V6.4h5.035q.426 0 .693-.16.267-.16.267-.619v-.938q0-.352-.267-.491-.267-.15-.693-.15H.32V2.934h4.693q.502 0 .694-.138.192-.139.192-.448v-.651q0-.31-.192-.448-.192-.139-.694-.139H0V0h5.013q.619 0 1.056.117.448.107.715.32.277.203.405.512.128.299.128.672v.566q0 .49-.245.832-.235.33-.64.416.427.117.704.405.277.277.277.821v1.227q0 .32-.117.619-.107.288-.384.512-.267.224-.725.362-.459.128-1.152.128z"/>
</svg>
