<svg xmlns="http://www.w3.org/2000/svg" id="svg2230" version="1.1" viewBox="0 0 8.512 7.509">
  <path id="six" fill="#000" fill-opacity="1" d="M2.357 7.51q-.64 0-1.088-.129-.448-.138-.736-.373-.277-.245-.405-.576Q0 6.102 0 5.696V1.813q0-.405.128-.736.128-.33.405-.565.288-.245.736-.373Q1.717 0 2.357 0H8.16v1.11H2.357q-.938 0-.938.693v.864h4.736q.64 0 1.088.138.448.128.725.374.288.234.416.565.128.33.128.736v1.216q0 .405-.128.736-.128.33-.416.576-.277.235-.725.373-.448.128-1.088.128zm4.736-3.04q0-.694-.938-.694H1.419v1.93q0 .694.938.694h3.798q.938 0 .938-.693z"/>
</svg>
