<svg xmlns="http://www.w3.org/2000/svg" id="svg2230" version="1.1" viewBox="0 0 8.544 7.509">
  <path id="eight" fill="#000" fill-opacity="1" d="M2.379 7.51q-.694 0-1.152-.129Q.768 7.243.49 7.02q-.267-.224-.384-.512Q0 6.208 0 5.888V4.661q0-.544.277-.821.278-.288.704-.405-.405-.086-.65-.416-.235-.342-.235-.832V1.62q0-.373.128-.672Q.352.64.619.437q.277-.213.714-.32Q1.771 0 2.4 0h3.744Q6.763 0 7.2.117q.448.107.715.32.277.203.405.512.128.299.128.672v.566q0 .49-.245.832-.235.33-.64.416.426.117.704.405.277.277.277.821v1.227q0 .32-.117.619-.107.288-.384.512-.267.224-.726.362-.458.128-1.152.128zm4.746-2.827q0-.352-.266-.491-.267-.15-.694-.15H2.38q-.427 0-.694.15-.266.139-.266.49v.94q0 .458.266.618.267.16.694.16h3.786q.427 0 .694-.16.266-.16.266-.619zM7.03 1.696q0-.31-.192-.448-.192-.139-.693-.139H2.4q-.501 0-.693.139-.192.139-.192.448v.65q0 .31.192.449.192.138.693.138h3.744q.501 0 .693-.138.192-.139.192-.448z"/>
</svg>
