<svg xmlns="http://www.w3.org/2000/svg" id="svg2230" version="1.1" viewBox="0 0 8.512 7.509">
  <path id="nine" fill="#000" fill-opacity="1" d="M.405 7.51V6.4h5.75q.938 0 .938-.693V4.65H2.357q-.64 0-1.088-.128-.448-.139-.736-.374-.277-.245-.405-.576Q0 3.243 0 2.837V1.813q0-.405.128-.736.128-.33.405-.565.288-.245.736-.373Q1.717 0 2.357 0h3.798q.64 0 1.088.139.448.128.725.373.288.235.416.565.128.331.128.736v3.883q0 .405-.128.736-.128.33-.416.576-.277.235-.725.373-.448.128-1.088.128zm6.688-5.707q0-.694-.938-.694H2.357q-.938 0-.938.694v1.045q0 .693.938.693h4.736z"/>
</svg>
